<svg xmlns="http://www.w3.org/2000/svg" width="38" height="38" viewBox="0 0 38 38">
  <g id="Instagram" transform="translate(0 14)">
    <path id="Path_3" data-name="Path 3" d="M19,3.378a58.258,58.258,0,0,1,7.6.211,9.792,9.792,0,0,1,3.589.633,7.414,7.414,0,0,1,3.589,3.589,9.792,9.792,0,0,1,.633,3.589c0,1.9.211,2.533.211,7.6a58.258,58.258,0,0,1-.211,7.6,9.792,9.792,0,0,1-.633,3.589,7.414,7.414,0,0,1-3.589,3.589,9.792,9.792,0,0,1-3.589.633c-1.9,0-2.533.211-7.6.211a58.257,58.257,0,0,1-7.6-.211,9.792,9.792,0,0,1-3.589-.633,7.414,7.414,0,0,1-3.589-3.589A9.792,9.792,0,0,1,3.589,26.6c0-1.9-.211-2.533-.211-7.6a58.258,58.258,0,0,1,.211-7.6,9.792,9.792,0,0,1,.633-3.589A7.582,7.582,0,0,1,5.7,5.7,3.569,3.569,0,0,1,7.811,4.222,9.792,9.792,0,0,1,11.4,3.589,58.258,58.258,0,0,1,19,3.378M19,0a62.377,62.377,0,0,0-7.811.211,13.033,13.033,0,0,0-4.644.844A8.264,8.264,0,0,0,3.167,3.167,8.264,8.264,0,0,0,1.056,6.544a9.619,9.619,0,0,0-.844,4.644A62.377,62.377,0,0,0,0,19a62.378,62.378,0,0,0,.211,7.811,13.033,13.033,0,0,0,.844,4.644,8.264,8.264,0,0,0,2.111,3.378,8.264,8.264,0,0,0,3.378,2.111,13.033,13.033,0,0,0,4.644.844A62.377,62.377,0,0,0,19,38a62.377,62.377,0,0,0,7.811-.211,13.033,13.033,0,0,0,4.644-.844,8.857,8.857,0,0,0,5.489-5.489,13.033,13.033,0,0,0,.844-4.644C37.789,24.7,38,24.067,38,19a62.377,62.377,0,0,0-.211-7.811,13.033,13.033,0,0,0-.844-4.644,8.264,8.264,0,0,0-2.111-3.378,8.264,8.264,0,0,0-3.378-2.111A13.033,13.033,0,0,0,26.811.211,62.377,62.377,0,0,0,19,0m0,9.289A9.555,9.555,0,0,0,9.289,19,9.711,9.711,0,1,0,19,9.289m0,16.044A6.22,6.22,0,0,1,12.667,19,6.22,6.22,0,0,1,19,12.667,6.22,6.22,0,0,1,25.333,19,6.22,6.22,0,0,1,19,25.333M29.133,6.544a2.322,2.322,0,1,0,2.322,2.322,2.343,2.343,0,0,0-2.322-2.322" transform="translate(0 -14)" fill="#fff" fill-rule="evenodd"/>
  </g>
</svg>
